# xmcd
#
# Track frame offsets:
# 150
# 17791
# 34229
# 45981
# 58878
# 76350
# 95409
# 107578
# 121533
# 134455
# 146283
# 157067
#
# Disc length: 2289 seconds
#
# Revision: 1
# Processed by: cddbd v1.4PL0 Copyright (c) Steve Scherf et al.
# Submitted via: CedeCatalogueitor 2.5 http://usuarios.lycos.es/kakasboy
#
DISCID=9708ef0c
DTITLE=Ray Charles - 24 Exitos Cd 1
DYEAR=1998
DGENRE=
TTITLE0=What'd I Say
TTITLE1=Georgia On My Mind
TTITLE2=Tell Me Baby
TTITLE3=Don't Put All Your Dreams In One Basket
TTITLE4=Ruby
TTITLE5=I Can't Stop Loving You
TTITLE6=Honey, Honey
TTITLE7=Kiss Me Baby
TTITLE8=Unchain My Heart
TTITLE9=If I Give You My Love
TTITLE10=Hey Now
TTITLE11=Born To Loose
EXTD=
EXTT0=
EXTT1=
EXTT2=
EXTT3=
EXTT4=
EXTT5=
EXTT6=
EXTT7=
EXTT8=
EXTT9=
EXTT10=
EXTT11=
PLAYORDER=
